<svg width="270" height="100" viewBox="0 0 270 100" fill="none" xmlns="http://www.w3.org/2000/svg">
<path d="M20.16 67.74V52.512L14.652 63.6H11.412L5.904 52.512V67.74H0V42.18H6.408L13.032 55.536L19.692 42.18H26.064V67.74H20.16Z" fill="white"/>
<path d="M39.1882 68.1C37.0282 68.1 35.1922 67.644 33.6802 66.732C32.1922 65.82 31.0523 64.62 30.2603 63.132C29.4683 61.644 29.0723 60.036 29.0723 58.308C29.0723 56.556 29.4683 54.936 30.2603 53.448C31.0523 51.96 32.2042 50.76 33.7162 49.848C35.2282 48.936 37.0522 48.48 39.1882 48.48C41.3242 48.48 43.1482 48.936 44.6602 49.848C46.1722 50.76 47.3242 51.96 48.1162 53.448C48.9082 54.936 49.3042 56.556 49.3042 58.308C49.3042 60.036 48.9082 61.644 48.1162 63.132C47.3242 64.62 46.1722 65.82 44.6602 66.732C43.1482 67.644 41.3242 68.1 39.1882 68.1ZM34.9762 58.308C34.9762 59.772 35.3722 60.96 36.1642 61.872C36.9803 62.784 37.9882 63.24 39.1882 63.24C40.3642 63.24 41.3482 62.784 42.1402 61.872C42.9562 60.96 43.3643 59.772 43.3643 58.308C43.3643 56.844 42.9562 55.656 42.1402 54.744C41.3482 53.832 40.3642 53.376 39.1882 53.376C37.9882 53.376 36.9803 53.832 36.1642 54.744C35.3722 55.656 34.9762 56.844 34.9762 58.308Z" fill="white"/>
<path d="M63.4649 67.92C61.7849 67.92 60.2009 67.608 58.7129 66.984C57.2489 66.336 55.9409 65.436 54.7889 64.284C53.6609 63.108 52.7729 61.728 52.1249 60.144C51.5009 58.536 51.1889 56.748 51.1889 54.78C51.1889 53.004 51.5009 51.348 52.1249 49.812C52.7729 48.276 53.6729 46.92 54.8249 45.744C56.0009 44.568 57.3569 43.656 58.8929 43.008C60.4529 42.336 62.1329 42 63.9329 42C66.2849 42 68.3489 42.504 70.1249 43.512C71.9249 44.52 73.2689 45.876 74.1569 47.58L69.7649 50.892C69.1889 49.764 68.3489 48.876 67.2449 48.228C66.1409 47.58 64.9649 47.256 63.7169 47.256C62.4209 47.256 61.2809 47.604 60.2969 48.3C59.3129 48.972 58.5449 49.896 57.9929 51.072C57.4409 52.248 57.1649 53.556 57.1649 54.996C57.1649 56.46 57.4529 57.78 58.0289 58.956C58.6049 60.108 59.3969 61.02 60.4049 61.692C61.4369 62.34 62.6249 62.664 63.9689 62.664C66.2729 62.664 68.3489 61.608 70.1969 59.496V58.668H65.2289V54.384H75.0929V67.74H70.1969V65.22C68.2529 67.02 66.0089 67.92 63.4649 67.92Z" fill="white"/>
<path d="M87.5281 68.1C85.3681 68.1 83.5321 67.644 82.0201 66.732C80.5321 65.82 79.3921 64.62 78.6001 63.132C77.8081 61.644 77.4121 60.036 77.4121 58.308C77.4121 56.556 77.8081 54.936 78.6001 53.448C79.3921 51.96 80.5441 50.76 82.0561 49.848C83.5681 48.936 85.3921 48.48 87.5281 48.48C89.6641 48.48 91.4881 48.936 93.0001 49.848C94.5121 50.76 95.6641 51.96 96.4561 53.448C97.2481 54.936 97.6441 56.556 97.6441 58.308C97.6441 60.036 97.2481 61.644 96.4561 63.132C95.6641 64.62 94.5121 65.82 93.0001 66.732C91.4881 67.644 89.6641 68.1 87.5281 68.1ZM83.3161 58.308C83.3161 59.772 83.7121 60.96 84.5041 61.872C85.3201 62.784 86.3281 63.24 87.5281 63.24C88.7041 63.24 89.6881 62.784 90.4801 61.872C91.2961 60.96 91.7041 59.772 91.7041 58.308C91.7041 56.844 91.2961 55.656 90.4801 54.744C89.6881 53.832 88.7041 53.376 87.5281 53.376C86.3281 53.376 85.3201 53.832 84.5041 54.744C83.7121 55.656 83.3161 56.844 83.3161 58.308Z" fill="white"/>
</svg>
